<svg width="910" height="611" xmlns="http://www.w3.org/2000/svg" xmlns:xlink="http://www.w3.org/1999/xlink" overflow="hidden"><defs><clipPath id="clip0"><path d="M21 104 931 104 931 715 21 715Z" fill-rule="evenodd" clip-rule="evenodd"/></clipPath></defs><g clip-path="url(#clip0)" transform="translate(-21 -104)"><rect x="157.5" y="139.5" width="191" height="89" stroke="#000000" stroke-miterlimit="8" fill="#FFFFFF"/><text font-family="Arial,Arial_MSFontService,sans-serif" font-weight="400" font-size="21" transform="translate(214.36 191)">Chrome</text><rect x="157.5" y="277.5" width="191" height="89" stroke="#000000" stroke-miterlimit="8" fill="#FFFFFF"/><text font-family="Arial,Arial_MSFontService,sans-serif" font-weight="400" font-size="21" transform="translate(185.444 329)">Selenium Hub</text><rect x="157.5" y="413.5" width="191" height="89" stroke="#000000" stroke-miterlimit="8" fill="#FFFFFF"/><text font-family="Arial,Arial_MSFontService,sans-serif" font-weight="400" font-size="21" transform="translate(219.11 465)">Python</text><rect x="157.5" y="530.5" width="191" height="89" stroke="#000000" stroke-miterlimit="8" fill="#FFFFFF"/><text font-family="Arial,Arial_MSFontService,sans-serif" font-weight="400" font-size="21" transform="translate(225.11 582)">Allure</text><rect x="626.5" y="139.5" width="190" height="89" stroke="#000000" stroke-miterlimit="8" fill="#FFFFFF"/><text font-family="Arial,Arial_MSFontService,sans-serif" font-weight="400" font-size="21" transform="translate(668.24 179)">web-<tspan x="46.1667" y="0">server</tspan><tspan x="9.5" y="25">(Apache)</tspan></text><rect x="626.5" y="282.5" width="190" height="89" stroke="#000000" stroke-miterlimit="8" fill="#FFFFFF"/><text font-family="Arial,Arial_MSFontService,sans-serif" font-weight="400" font-size="21" transform="translate(669.99 322)">app-<tspan x="42.6667" y="0">server</tspan><tspan x="-11.8333" y="25">(Spring Boot)</tspan></text><rect x="626.5" y="418.5" width="190" height="89" stroke="#000000" stroke-miterlimit="8" fill="#FFFFFF"/><text font-family="Arial,Arial_MSFontService,sans-serif" font-weight="400" font-size="21" transform="translate(675.906 458)">db<tspan x="23.6667" y="0">-</tspan><tspan x="30.8334" y="0">server</tspan><tspan x="-20.1666" y="25">(PostgreSQL)</tspan></text><path d="M348.5 183 625.384 183 625.384 184 348.5 184ZM613.622 176.396 626.409 183.5 613.622 190.604C613.381 190.738 613.076 190.651 612.942 190.41 612.808 190.168 612.895 189.864 613.136 189.73L625.136 183.063 625.136 183.937 613.136 177.271C612.895 177.136 612.808 176.832 612.942 176.591 613.076 176.349 613.381 176.262 613.622 176.396Z"/><path d="M0.5-1.08149e-06 0.500103 47.5081-0.499897 47.5081-0.5 1.08149e-06ZM7.10382 35.751 0.000104953 48.5377-7.10367 35.751C-7.23778 35.5096-7.1508 35.2052-6.90941 35.0711-6.66802 34.937-6.36362 35.024-6.22951 35.2654L0.437181 47.2653-0.436976 47.2653 6.22966 35.2653C6.36377 35.0239 6.66817 34.937 6.90956 35.0711 7.15096 35.2052 7.23793 35.5096 7.10382 35.751Z" transform="matrix(1 0 0 -1 252.5 277.038)"/><path d="M0.5-1.12666e-06 0.500103 45.5622-0.499897 45.5622-0.5 1.12666e-06ZM7.10382 33.8049 0.000104912 46.5917-7.10367 33.805C-7.23778 33.5636-7.1508 33.2592-6.90941 33.1251-6.66802 32.991-6.36362 33.0779-6.22951 33.3193L0.437181 45.3193-0.436976 45.3193 6.22966 33.3193C6.36377 33.0779 6.66817 32.9909 6.90956 33.125 7.15096 33.2591 7.23793 33.5635 7.10382 33.8049Z" transform="matrix(1 0 0 -1 252.5 413.092)"/><path d="M1.02998-0.5 28.672-0.5 28.672 117.481 1.25785 117.481 1.25785 116.481 28.172 116.481 27.672 116.981 27.672 0 28.172 0.5 1.02998 0.5ZM12.7872 7.10375 0.000437069 0 12.7872-7.10375C13.0286-7.23785 13.333-7.15088 13.4671-6.90949 13.6012-6.6681 13.5142-6.36369 13.2728-6.22959L1.27282 0.437079 1.27282-0.437079 13.2728 6.22959C13.5142 6.36369 13.6012 6.6681 13.4671 6.90949 13.333 7.15088 13.0286 7.23785 12.7872 7.10375Z" transform="matrix(1 0 0 -1 348.5 574.481)"/><text font-family="Arial,Arial_MSFontService,sans-serif" font-weight="400" font-size="15" transform="translate(172.725 246)">Port: 5900<tspan x="0.689545" y="140">Port: 4444</tspan><tspan x="-95.4034" y="319">Port: 4040</tspan><tspan x="-93.9146" y="202">Port: 8081</tspan></text><path d="M22.5001 457 156.361 457 156.361 458 22.5001 458ZM144.603 450.396 157.39 457.5 144.603 464.604C144.362 464.738 144.058 464.651 143.924 464.41 143.789 464.168 143.876 463.864 144.118 463.73L156.118 457.063 156.118 457.937 144.118 451.271C143.876 451.136 143.789 450.832 143.924 450.591 144.058 450.349 144.362 450.262 144.603 450.396Z"/><path d="M22.5001 574 156.361 574 156.361 575 22.5001 575ZM144.603 567.396 157.39 574.5 144.603 581.604C144.362 581.738 144.058 581.651 143.924 581.41 143.789 581.168 143.876 580.864 144.118 580.73L156.118 574.063 156.118 574.937 144.118 568.271C143.876 568.136 143.789 567.832 143.924 567.591 144.058 567.349 144.362 567.262 144.603 567.396Z"/><text font-family="Arial,Arial_MSFontService,sans-serif" font-weight="400" font-size="15" transform="translate(568.532 170)">Port: 80</text><path d="M722 228.5 722 281.346 721 281.346 721 228.5ZM728.604 269.588 721.5 282.375 714.396 269.588C714.262 269.347 714.349 269.043 714.591 268.909 714.832 268.774 715.136 268.861 715.271 269.103L721.937 281.103 721.063 281.103 727.73 269.103C727.864 268.861 728.168 268.774 728.41 268.909 728.651 269.043 728.738 269.347 728.604 269.588Z"/><text font-family="Arial,Arial_MSFontService,sans-serif" font-weight="400" font-size="15" transform="translate(737.529 276)">Port: 8080</text><path d="M0.5-1.12666e-06 0.500103 45.5622-0.499897 45.5622-0.5 1.12666e-06ZM7.10382 33.8049 0.000104912 46.5917-7.10367 33.805C-7.23778 33.5636-7.1508 33.2592-6.90941 33.1251-6.66802 32.991-6.36362 33.0779-6.22951 33.3193L0.437181 45.3193-0.436976 45.3193 6.22966 33.3193C6.36377 33.0779 6.66817 32.9909 6.90956 33.125 7.15096 33.2591 7.23793 33.5635 7.10382 33.8049Z" transform="matrix(-1 -8.74228e-08 -8.74228e-08 1 721.5 371.5)"/><text font-family="Arial,Arial_MSFontService,sans-serif" font-weight="400" font-size="15" transform="translate(740.999 412)">Port: 5432</text><rect x="69.5001" y="125.5" width="407" height="517" stroke="#ED7D31" stroke-width="3" stroke-miterlimit="8" fill="none"/><rect x="154" y="625" width="225" height="36" fill="#FFFFFF"/><text font-family="Arial,Arial_MSFontService,sans-serif" font-weight="400" font-size="21" transform="translate(163.763 651)">selenium<tspan x="85.1667" y="0">-</tspan><tspan x="92.3333" y="0">e2e</tspan>-<tspan x="135" y="0">sample</tspan></text><path d="M397.5 538.5 359.5 538.5 359.5 507.361 371.361 495.5 397.5 495.5Z" fill="#FFFFFF" fill-rule="evenodd"/><path d="M371.361 495.5 368.989 504.989 359.5 507.361Z" fill="#CDCDCD" fill-rule="evenodd"/><path d="M371.361 495.5 368.989 504.989 359.5 507.361 371.361 495.5 397.5 495.5 397.5 538.5 359.5 538.5 359.5 507.361" stroke="#000000" stroke-miterlimit="8" fill="none" fill-rule="evenodd"/><text font-family="Arial,Arial_MSFontService,sans-serif" font-weight="400" font-size="15" transform="translate(401.634 522)">result.json</text><rect x="386" y="184" width="129" height="28" fill="#FFFFFF"/><text font-family="Arial,Arial_MSFontService,sans-serif" font-weight="400" font-size="15" transform="translate(395.717 203)">http://web<tspan x="63.3333" y="0">-</tspan><tspan x="68.1667" y="0">server</tspan></text><rect x="531.5" y="125.5" width="353" height="517" stroke="#70AD47" stroke-width="3" stroke-miterlimit="8" fill="none"/><text font-family="Arial,Arial_MSFontService,sans-serif" font-weight="400" font-size="15" transform="translate(824.049 175)">Port: 80</text><path d="M4.62241e-07-0.5 112.533-0.499896 112.533 0.500104-4.62241e-07 0.5ZM100.776-7.10365 113.563 0.000105 100.776 7.10384C100.534 7.23795 100.23 7.15097 100.096 6.90958 99.9618 6.66819 100.049 6.36379 100.29 6.22968L112.29-0.436975 112.29 0.437182 100.29-6.2295C100.049-6.3636 99.9619-6.668 100.096-6.9094 100.23-7.15079 100.534-7.23776 100.776-7.10365Z" transform="matrix(-1 -8.74228e-08 -8.74228e-08 1 930.063 183.5)"/><rect x="581" y="624" width="243" height="36" fill="#FFFFFF"/><text font-family="Arial,Arial_MSFontService,sans-serif" font-weight="400" font-size="21" transform="translate(590.786 650)">docker-<tspan x="71.1666" y="0">webapp</tspan>-<tspan x="152.833" y="0">sample</tspan></text><rect x="34.5001" y="106.5" width="885" height="583" stroke="#4472C4" stroke-width="3" stroke-miterlimit="8" fill="none"/><rect x="457" y="671" width="87" height="35" fill="#FFFFFF"/><text font-family="Arial,Arial_MSFontService,sans-serif" font-weight="400" font-size="21" transform="translate(466.415 697)">Docker<tspan font-size="16" x="-106.389" y="-245">Volume Link</tspan></text></g></svg>